<svg xmlns="http://www.w3.org/2000/svg" viewBox="0 0 304 326" role="img" aria-label="Nitrobenzene chemical structure">
  <rect width="304" height="326" fill="#f5f5f5"/>
  <g stroke-linecap="round" stroke-linejoin="round" fill="none">
    <g stroke="#222" stroke-width="2.4">
      <polygon points="152,119 207,151 207,216 152,249 97,216 97,151"/>
      <line x1="159" y1="130" x2="195" y2="151"/>
      <line x1="196" y1="164" x2="196" y2="207"/>
      <line x1="190" y1="224" x2="154" y2="245"/>
      <line x1="143" y1="245" x2="107" y2="224"/>
      <line x1="107" y1="205" x2="107" y2="164"/>
      <line x1="116" y1="149" x2="150" y2="130"/>
      <line x1="152" y1="119" x2="152" y2="77"/>
    </g>
    <g stroke-width="2">
      <line x1="145" y1="64" x2="114" y2="46" stroke="#335cff"/>
      <line x1="149" y1="58" x2="118" y2="40" stroke="#335cff"/>
      <line x1="160" y1="59" x2="190" y2="42" stroke="#335cff"/>
    </g>
    <g stroke="#222" stroke-width="1.5">
      <line x1="152" y1="77" x2="152" y2="60"/>
    </g>
  </g>
  <g font-family="Arial, Helvetica, sans-serif" font-weight="700">
    <text x="146" y="61" font-size="20" fill="#335cff">N</text>
    <text x="132" y="49" font-size="15" fill="#335cff">+</text>
    <text x="92" y="41" font-size="20" fill="#ff1f1f">O</text>
    <text x="195" y="41" font-size="20" fill="#ff1f1f">O</text>
    <text x="217" y="32" font-size="14" fill="#ff1f1f">-</text>
  </g>
</svg>
